<svg width="420" height="420" viewBox="0 0 420 420" fill="none" xmlns="http://www.w3.org/2000/svg">
<path d="M276.963 194.32H255.037L247.24 186.511L247.24 135.769L255.037 127.96L276.963 127.96L284.76 135.769V186.511L276.963 194.32Z" fill="url(#paint0_linear_6_726)"/>
<path d="M284.76 142.938H247.24V146.778H284.76V142.938Z" fill="#2B2C28"/>
<path d="M280.979 167.483C281.536 167.483 281.987 167.031 281.987 166.473C281.987 165.915 281.536 165.463 280.979 165.463C280.422 165.463 279.97 165.915 279.97 166.473C279.97 167.031 280.422 167.483 280.979 167.483Z" fill="#2B2C28"/>
<path d="M280.979 172.472C281.536 172.472 281.987 172.02 281.987 171.462C281.987 170.904 281.536 170.452 280.979 170.452C280.422 170.452 279.97 170.904 279.97 171.462C279.97 172.02 280.422 172.472 280.979 172.472Z" fill="#2B2C28"/>
<path d="M280.979 177.461C281.536 177.461 281.987 177.009 281.987 176.451C281.987 175.893 281.536 175.441 280.979 175.441C280.422 175.441 279.97 175.893 279.97 176.451C279.97 177.009 280.422 177.461 280.979 177.461Z" fill="#2B2C28"/>
<path d="M280.979 182.45C281.536 182.45 281.987 181.998 281.987 181.44C281.987 180.882 281.536 180.43 280.979 180.43C280.422 180.43 279.97 180.882 279.97 181.44C279.97 181.998 280.422 182.45 280.979 182.45Z" fill="#2B2C28"/>
<path d="M275.997 167.483C276.554 167.483 277.006 167.031 277.006 166.473C277.006 165.915 276.554 165.463 275.997 165.463C275.44 165.463 274.989 165.915 274.989 166.473C274.989 167.031 275.44 167.483 275.997 167.483Z" fill="#2B2C28"/>
<path d="M275.997 172.472C276.554 172.472 277.006 172.02 277.006 171.462C277.006 170.904 276.554 170.452 275.997 170.452C275.44 170.452 274.989 170.904 274.989 171.462C274.989 172.02 275.44 172.472 275.997 172.472Z" fill="#2B2C28"/>
<path d="M275.997 177.461C276.554 177.461 277.006 177.009 277.006 176.451C277.006 175.893 276.554 175.441 275.997 175.441C275.44 175.441 274.989 175.893 274.989 176.451C274.989 177.009 275.44 177.461 275.997 177.461Z" fill="#2B2C28"/>
<path d="M275.997 182.45C276.554 182.45 277.006 181.998 277.006 181.44C277.006 180.882 276.554 180.43 275.997 180.43C275.44 180.43 274.989 180.882 274.989 181.44C274.989 181.998 275.44 182.45 275.997 182.45Z" fill="#2B2C28"/>
<path d="M271.019 167.483C271.576 167.483 272.027 167.031 272.027 166.473C272.027 165.915 271.576 165.463 271.019 165.463C270.462 165.463 270.01 165.915 270.01 166.473C270.01 167.031 270.462 167.483 271.019 167.483Z" fill="#2B2C28"/>
<path d="M271.019 172.472C271.576 172.472 272.027 172.02 272.027 171.462C272.027 170.904 271.576 170.452 271.019 170.452C270.462 170.452 270.01 170.904 270.01 171.462C270.01 172.02 270.462 172.472 271.019 172.472Z" fill="#2B2C28"/>
<path d="M271.019 177.461C271.576 177.461 272.027 177.009 272.027 176.451C272.027 175.893 271.576 175.441 271.019 175.441C270.462 175.441 270.01 175.893 270.01 176.451C270.01 177.009 270.462 177.461 271.019 177.461Z" fill="#2B2C28"/>
<path d="M271.019 182.45C271.576 182.45 272.027 181.998 272.027 181.44C272.027 180.882 271.576 180.43 271.019 180.43C270.462 180.43 270.01 180.882 270.01 181.44C270.01 181.998 270.462 182.45 271.019 182.45Z" fill="#2B2C28"/>
<path d="M266.037 167.483C266.594 167.483 267.046 167.031 267.046 166.473C267.046 165.915 266.594 165.463 266.037 165.463C265.48 165.463 265.029 165.915 265.029 166.473C265.029 167.031 265.48 167.483 266.037 167.483Z" fill="#2B2C28"/>
<path d="M266.037 172.472C266.594 172.472 267.046 172.02 267.046 171.462C267.046 170.904 266.594 170.452 266.037 170.452C265.48 170.452 265.029 170.904 265.029 171.462C265.029 172.02 265.48 172.472 266.037 172.472Z" fill="#2B2C28"/>
<path d="M266.037 177.461C266.594 177.461 267.046 177.009 267.046 176.451C267.046 175.893 266.594 175.441 266.037 175.441C265.48 175.441 265.029 175.893 265.029 176.451C265.029 177.009 265.48 177.461 266.037 177.461Z" fill="#2B2C28"/>
<path d="M266.037 182.45C266.594 182.45 267.046 181.998 267.046 181.44C267.046 180.882 266.594 180.43 266.037 180.43C265.48 180.43 265.029 180.882 265.029 181.44C265.029 181.998 265.48 182.45 266.037 182.45Z" fill="#2B2C28"/>
<path d="M261.058 167.483C261.615 167.483 262.067 167.031 262.067 166.473C262.067 165.915 261.615 165.463 261.058 165.463C260.501 165.463 260.05 165.915 260.05 166.473C260.05 167.031 260.501 167.483 261.058 167.483Z" fill="#2B2C28"/>
<path d="M261.058 172.472C261.615 172.472 262.067 172.02 262.067 171.462C262.067 170.904 261.615 170.452 261.058 170.452C260.501 170.452 260.05 170.904 260.05 171.462C260.05 172.02 260.501 172.472 261.058 172.472Z" fill="#2B2C28"/>
<path d="M261.058 177.461C261.615 177.461 262.067 177.009 262.067 176.451C262.067 175.893 261.615 175.441 261.058 175.441C260.501 175.441 260.05 175.893 260.05 176.451C260.05 177.009 260.501 177.461 261.058 177.461Z" fill="#2B2C28"/>
<path d="M261.058 182.45C261.615 182.45 262.067 181.998 262.067 181.44C262.067 180.882 261.615 180.43 261.058 180.43C260.501 180.43 260.05 180.882 260.05 181.44C260.05 181.998 260.501 182.45 261.058 182.45Z" fill="#2B2C28"/>
<path d="M256.08 167.483C256.637 167.483 257.088 167.031 257.088 166.473C257.088 165.915 256.637 165.463 256.08 165.463C255.523 165.463 255.071 165.915 255.071 166.473C255.071 167.031 255.523 167.483 256.08 167.483Z" fill="#2B2C28"/>
<path d="M256.08 172.472C256.637 172.472 257.088 172.02 257.088 171.462C257.088 170.904 256.637 170.452 256.08 170.452C255.523 170.452 255.071 170.904 255.071 171.462C255.071 172.02 255.523 172.472 256.08 172.472Z" fill="#2B2C28"/>
<path d="M256.08 177.461C256.637 177.461 257.088 177.009 257.088 176.451C257.088 175.893 256.637 175.441 256.08 175.441C255.523 175.441 255.071 175.893 255.071 176.451C255.071 177.009 255.523 177.461 256.08 177.461Z" fill="#2B2C28"/>
<path d="M256.08 182.45C256.637 182.45 257.088 181.998 257.088 181.44C257.088 180.882 256.637 180.43 256.08 180.43C255.523 180.43 255.071 180.882 255.071 181.44C255.071 181.998 255.523 182.45 256.08 182.45Z" fill="#2B2C28"/>
<path d="M251.098 167.483C251.655 167.483 252.107 167.031 252.107 166.473C252.107 165.915 251.655 165.463 251.098 165.463C250.541 165.463 250.09 165.915 250.09 166.473C250.09 167.031 250.541 167.483 251.098 167.483Z" fill="#2B2C28"/>
<path d="M251.098 172.472C251.655 172.472 252.107 172.02 252.107 171.462C252.107 170.904 251.655 170.452 251.098 170.452C250.541 170.452 250.09 170.904 250.09 171.462C250.09 172.02 250.541 172.472 251.098 172.472Z" fill="#2B2C28"/>
<path d="M251.098 177.461C251.655 177.461 252.107 177.009 252.107 176.451C252.107 175.893 251.655 175.441 251.098 175.441C250.541 175.441 250.09 175.893 250.09 176.451C250.09 177.009 250.541 177.461 251.098 177.461Z" fill="#2B2C28"/>
<path d="M251.098 182.45C251.655 182.45 252.107 181.998 252.107 181.44C252.107 180.882 251.655 180.43 251.098 180.43C250.541 180.43 250.09 180.882 250.09 181.44C250.09 181.998 250.541 182.45 251.098 182.45Z" fill="#2B2C28"/>
<path d="M354.76 202.012H345.823L345.823 386.68H354.76L354.76 202.012Z" fill="url(#paint1_linear_6_726)"/>
<path d="M52.0582 202.012H43.1208L43.1208 386.68H52.0582L52.0582 202.012Z" fill="url(#paint2_linear_6_726)"/>
<path d="M158.325 202.012H149.388L149.388 386.68H158.325L158.325 202.012Z" fill="url(#paint3_linear_6_726)"/>
<path d="M354.756 193.2L43.12 193.2V203.313L354.756 203.313V193.2Z" fill="url(#paint4_linear_6_726)"/>
<path d="M158.321 193.2L43.1915 193.2V203.313L158.321 203.313V193.2Z" fill="url(#paint5_linear_6_726)"/>
<path d="M382.735 36.96L298.821 36.96C295.719 36.96 292.743 38.1937 290.549 40.3898C288.355 42.5858 287.122 45.5643 287.122 48.67V66.4951C287.122 66.4951 286.726 120.855 287.122 120.38C287.519 119.906 304.378 99.6148 308.096 96.0498L373.318 95.9132H382.735C385.838 95.9132 388.814 94.6794 391.008 92.4834C393.202 90.2874 394.434 87.3089 394.434 84.2032V48.6049C394.417 45.5105 393.177 42.5487 390.985 40.3667C388.793 38.1847 385.827 36.96 382.735 36.96V36.96Z" fill="#339989"/>
<path d="M358.967 69.2145C357.183 69.2145 355.737 67.7669 355.737 65.9812C355.737 64.1955 357.183 62.748 358.967 62.748C360.751 62.748 362.197 64.1955 362.197 65.9812C362.197 67.7669 360.751 69.2145 358.967 69.2145Z" fill="#339989"/>
<path d="M340.197 69.2145C338.413 69.2145 336.966 67.7669 336.966 65.9812C336.966 64.1955 338.413 62.748 340.197 62.748C341.981 62.748 343.427 64.1955 343.427 65.9812C343.427 67.7669 341.981 69.2145 340.197 69.2145Z" fill="#339989"/>
<path d="M321.433 69.2144C319.649 69.2144 318.203 67.7669 318.203 65.9812C318.203 64.1955 319.649 62.7479 321.433 62.7479C323.217 62.7479 324.663 64.1955 324.663 65.9812C324.663 67.7669 323.217 69.2144 321.433 69.2144Z" fill="#339989"/>
<path d="M133.751 387.8C139.497 387.8 144.155 383.146 144.155 377.404C144.155 371.663 139.497 367.008 133.751 367.008C128.005 367.008 123.347 371.663 123.347 377.404C123.347 383.146 128.005 387.8 133.751 387.8Z" fill="url(#paint6_linear_6_726)"/>
<path d="M174.468 227.663L37.51 227.663L37.51 252.953L174.468 252.953V227.663Z" fill="url(#paint7_linear_6_726)"/>
<path d="M81.0285 252.953H130.75C130.75 257.352 127.148 260.85 122.846 260.85H89.0319C84.53 260.85 81.0285 257.352 81.0285 252.953Z" fill="url(#paint8_linear_6_726)"/>
<path d="M111.942 260.75H99.7365V283.042H111.942V260.75Z" fill="url(#paint9_linear_6_726)"/>
<path d="M104.538 280.643H107.24C111.641 280.643 115.243 284.241 115.243 288.639L115.243 353.814H96.5351L96.5351 288.639C96.435 284.241 100.037 280.643 104.538 280.643Z" fill="url(#paint10_linear_6_726)"/>
<path d="M105.939 353.814H151.959C157.661 353.814 162.163 358.412 162.163 364.009V367.308H158.862V366.608V365.209C158.862 360.711 155.26 357.112 150.758 357.112H105.939V353.814Z" fill="url(#paint11_linear_6_726)"/>
<path d="M105.939 353.814H125.347C131.05 353.814 135.552 358.412 135.552 364.009V367.308H132.25V366.608V365.209C132.25 360.711 128.649 357.112 124.147 357.112H105.939V353.814Z" fill="#23286B"/>
<path d="M106.139 353.814H60.1196C54.4172 353.814 49.9153 358.412 49.9153 364.009V367.308H53.2167V366.608V365.209C53.2167 360.711 56.8182 357.112 61.3202 357.112H106.139V353.814Z" fill="url(#paint12_linear_6_726)"/>
<path d="M106.139 353.814H86.7309C81.0285 353.814 76.5266 358.412 76.5266 364.009V367.308H79.828V366.608V365.209C79.828 360.711 83.4295 357.112 87.9315 357.112H106.139V353.814Z" fill="#23286B"/>
<path d="M78.1273 387.8C83.8735 387.8 88.5317 383.146 88.5317 377.404C88.5317 371.663 83.8735 367.008 78.1273 367.008C72.3811 367.008 67.7229 371.663 67.7229 377.404C67.7229 383.146 72.3811 387.8 78.1273 387.8Z" fill="url(#paint13_linear_6_726)"/>
<path d="M160.562 387.8C166.309 387.8 170.967 383.146 170.967 377.404C170.967 371.663 166.309 367.008 160.562 367.008C154.816 367.008 150.158 371.663 150.158 377.404C150.158 383.146 154.816 387.8 160.562 387.8Z" fill="url(#paint14_linear_6_726)"/>
<path d="M145.356 354.213L133.351 387.7H218.187C218.187 387.7 213.785 379.303 199.279 373.106C184.773 366.908 171.267 354.213 171.267 354.213H145.356Z" fill="url(#paint15_linear_6_726)"/>
<path d="M85.2303 200.074C85.2303 200.074 96.335 225.664 129.649 229.163C162.963 232.661 149.458 266.548 146.556 271.846C143.655 277.144 140.054 281.742 137.953 289.939C135.852 298.136 138.853 308.731 135.552 314.729C132.25 320.727 118.344 340.919 122.646 354.213H171.367C171.367 354.213 199.479 243.657 197.578 232.761C195.677 221.866 198.779 213.069 169.466 199.475C140.154 185.88 120.445 177.383 120.445 177.383L85.2303 200.074Z" fill="url(#paint16_linear_6_726)"/>
<path d="M51.516 387.8C57.2622 387.8 61.9204 383.146 61.9204 377.404C61.9204 371.663 57.2622 367.008 51.516 367.008C45.7698 367.008 41.1116 371.663 41.1116 377.404C41.1116 383.146 45.7698 387.8 51.516 387.8Z" fill="url(#paint17_linear_6_726)"/>
<path d="M105.239 100.914L89.9323 92.9169L95.1345 80.9216C99.3363 83.3207 103.638 86.2195 108.44 85.8197C107.64 88.0188 104.338 97.8149 105.239 100.914Z" fill="url(#paint18_linear_6_726)"/>
<path d="M171.367 354.313L159.462 387.9H244.298C244.298 387.9 239.896 379.503 225.39 373.306C210.884 367.108 197.378 354.413 197.378 354.413" fill="#2B2C28"/>
<path d="M94.9344 194.177C94.9344 194.177 91.8331 222.865 130.249 229.063C168.666 235.26 170.367 239.959 170.667 249.755C170.967 259.551 168.066 265.349 164.464 275.445C160.862 285.541 160.762 299.435 162.663 307.532C164.564 315.629 156.16 325.725 152.259 335.221C149.858 341.318 148.657 347.716 149.358 354.213L202.28 354.413C202.28 354.413 216.386 259.551 217.387 245.556C218.387 231.562 222.889 217.268 204.681 207.871C186.473 198.475 147.457 181.282 147.457 181.282L94.9344 194.177Z" fill="url(#paint19_linear_6_726)"/>
<path opacity="0.86" d="M124.347 199.475C124.247 199.575 124.247 199.675 124.347 199.775C124.447 199.874 124.547 199.874 124.647 199.775C124.747 199.675 124.747 199.575 124.647 199.475C124.547 199.375 124.447 199.375 124.347 199.475ZM121.246 202.773C121.146 202.873 121.146 202.973 121.246 203.073C121.346 203.173 121.446 203.173 121.546 203.073C121.646 202.973 121.646 202.873 121.546 202.773C121.446 202.673 121.346 202.773 121.246 202.773ZM138.653 210.27C138.553 210.27 138.453 210.37 138.453 210.47C138.453 210.57 138.553 210.67 138.653 210.67C138.753 210.67 138.853 210.57 138.853 210.47C138.853 210.27 138.753 210.27 138.653 210.27ZM134.051 210.37C133.951 210.37 133.851 210.47 133.851 210.57C133.851 210.67 133.951 210.77 134.051 210.77C134.151 210.77 134.251 210.67 134.251 210.57C134.251 210.47 134.151 210.37 134.051 210.37ZM129.549 210.57C129.449 210.57 129.349 210.67 129.349 210.77C129.349 210.87 129.449 210.97 129.549 210.97C129.649 210.97 129.749 210.87 129.749 210.77C129.749 210.57 129.649 210.57 129.549 210.57ZM124.947 210.67C124.847 210.67 124.747 210.77 124.747 210.87C124.747 210.97 124.847 211.07 124.947 211.07C125.047 211.07 125.147 210.97 125.147 210.87C125.147 210.77 125.047 210.67 124.947 210.67ZM131.75 228.163C131.65 228.263 131.65 228.363 131.75 228.463C131.85 228.563 131.95 228.563 131.95 228.463C132.05 228.363 132.05 228.263 131.95 228.163C131.85 228.063 131.85 228.163 131.75 228.163ZM134.051 201.574C133.951 201.574 133.951 201.774 133.951 201.774L134.151 201.874C134.251 201.874 134.251 201.674 134.251 201.674C134.251 201.574 134.151 201.574 134.051 201.574ZM129.849 203.473C129.749 203.473 129.749 203.673 129.749 203.673C129.749 203.673 129.749 203.773 129.849 203.773C129.949 203.773 129.949 203.773 130.049 203.773C130.149 203.773 130.149 203.673 130.149 203.573C130.049 203.473 129.949 203.373 129.849 203.473ZM125.748 205.372C125.647 205.372 125.647 205.472 125.647 205.572C125.647 205.672 125.748 205.672 125.848 205.672C125.948 205.672 125.948 205.572 125.948 205.472C125.948 205.372 125.848 205.272 125.748 205.372ZM121.546 207.172C121.446 207.172 121.446 207.371 121.446 207.371C121.446 207.471 121.546 207.471 121.646 207.471C121.746 207.471 121.746 207.371 121.746 207.272C121.746 207.172 121.646 207.172 121.546 207.172ZM134.651 219.067C134.651 219.167 134.651 219.267 134.751 219.267C134.851 219.267 134.951 219.267 134.951 219.167C134.951 219.067 134.951 218.967 134.851 218.967C134.751 218.967 134.651 218.967 134.651 219.067ZM130.349 217.467C130.349 217.567 130.349 217.667 130.45 217.667C130.55 217.667 130.65 217.667 130.65 217.567C130.65 217.467 130.65 217.368 130.55 217.368C130.55 217.368 130.45 217.368 130.349 217.467ZM125.347 199.775C125.147 199.874 125.147 200.074 125.147 200.274C125.247 200.374 125.347 200.474 125.447 200.474C125.547 200.474 125.547 200.474 125.647 200.474L125.748 200.374C125.848 200.274 125.848 199.974 125.748 199.874C125.647 199.675 125.547 199.675 125.347 199.775ZM159.262 219.767C159.162 219.966 159.262 220.166 159.462 220.166C159.662 220.266 159.862 220.166 159.862 219.966C159.962 219.767 159.862 219.567 159.662 219.567C159.562 219.467 159.362 219.567 159.262 219.767ZM150.958 217.268C150.858 217.467 151.058 217.667 151.158 217.667C151.358 217.767 151.559 217.667 151.559 217.467C151.659 217.268 151.559 217.068 151.358 217.068C151.258 216.968 151.058 217.068 150.958 217.268ZM142.755 214.769C142.755 214.968 142.855 215.168 142.955 215.268C143.155 215.368 143.355 215.268 143.355 215.068C143.455 214.869 143.355 214.669 143.155 214.669C142.955 214.469 142.755 214.569 142.755 214.769ZM134.451 212.27C134.351 212.469 134.551 212.669 134.651 212.669C134.851 212.769 135.051 212.669 135.051 212.469C135.152 212.27 135.051 212.07 134.851 212.07C134.751 211.97 134.551 212.07 134.451 212.27ZM126.248 209.771C126.148 209.97 126.348 210.17 126.548 210.17C126.748 210.27 126.948 210.07 126.948 209.97C127.048 209.771 126.948 209.571 126.748 209.571C126.448 209.471 126.248 209.571 126.248 209.771ZM157.261 200.874C157.061 200.874 156.861 201.074 156.961 201.274C157.061 201.474 157.161 201.674 157.361 201.574C157.561 201.474 157.761 201.374 157.661 201.174C157.561 200.974 157.461 200.874 157.261 200.874ZM148.657 201.674C148.457 201.674 148.257 201.874 148.357 202.074C148.357 202.274 148.557 202.473 148.757 202.373C148.957 202.373 149.157 202.174 149.057 201.974C149.057 201.874 148.857 201.674 148.657 201.674ZM140.054 202.573C139.854 202.573 139.753 202.773 139.753 202.973C139.753 203.173 139.954 203.273 140.154 203.273C140.354 203.273 140.454 203.073 140.454 202.873C140.454 202.673 140.254 202.573 140.054 202.573ZM131.45 203.473C131.25 203.473 131.15 203.673 131.15 203.873C131.15 204.073 131.35 204.173 131.55 204.173C131.75 204.173 131.85 203.973 131.85 203.773C131.85 203.573 131.65 203.473 131.45 203.473ZM122.846 204.273C122.646 204.273 122.546 204.473 122.546 204.673C122.546 204.872 122.746 204.972 122.946 204.972C123.146 204.972 123.246 204.773 123.246 204.573C123.246 204.473 123.046 204.273 122.846 204.273C122.946 204.273 122.846 204.273 122.846 204.273ZM141.054 227.164C140.954 227.264 140.954 227.563 141.054 227.663C141.254 227.763 141.454 227.763 141.554 227.663C141.654 227.464 141.654 227.264 141.454 227.164C141.454 227.064 141.154 227.064 141.054 227.164ZM134.351 221.766C134.251 221.966 134.251 222.166 134.351 222.266C134.451 222.366 134.751 222.366 134.851 222.266C134.951 222.166 134.951 221.866 134.851 221.766C134.751 221.566 134.551 221.566 134.351 221.766ZM127.648 216.268C127.548 216.468 127.548 216.668 127.748 216.768C127.848 216.868 128.149 216.868 128.249 216.768C128.349 216.568 128.349 216.368 128.249 216.268C128.048 216.168 127.848 216.168 127.648 216.268ZM156.16 192.577C155.96 192.577 155.86 192.777 155.86 192.977C155.86 193.177 156.06 193.277 156.261 193.277C156.461 193.277 156.561 193.077 156.461 192.877C156.561 192.577 156.361 192.477 156.16 192.577ZM148.657 194.077C148.457 194.077 148.357 194.277 148.457 194.477C148.457 194.677 148.657 194.777 148.857 194.677C149.057 194.677 149.157 194.477 149.057 194.277C148.957 194.077 148.857 193.977 148.657 194.077ZM141.054 195.576C140.954 195.576 140.954 195.576 140.854 195.676C140.754 195.776 140.754 195.876 140.754 195.976C140.754 196.176 140.954 196.276 141.154 196.276C141.354 196.276 141.454 196.076 141.354 195.876C141.354 195.776 141.254 195.776 141.254 195.676C141.254 195.576 141.154 195.476 141.054 195.576ZM133.551 197.076C133.351 197.076 133.251 197.276 133.351 197.475C133.351 197.675 133.551 197.775 133.751 197.775C133.951 197.775 134.051 197.575 134.051 197.375C133.851 197.076 133.651 196.976 133.551 197.076ZM149.658 224.465C149.558 224.565 149.558 224.765 149.758 224.865C149.858 224.965 150.058 224.964 150.158 224.765C150.258 224.565 150.258 224.465 150.058 224.265C149.958 224.265 149.758 224.265 149.658 224.465ZM143.255 220.166C143.155 220.266 143.155 220.466 143.355 220.566C143.455 220.666 143.655 220.666 143.755 220.466C143.855 220.366 143.855 220.166 143.655 220.066C143.555 219.966 143.355 220.066 143.255 220.166ZM136.852 215.868C136.752 215.968 136.752 216.168 136.952 216.268C137.052 216.368 137.252 216.368 137.352 216.168C137.453 216.068 137.452 215.868 137.252 215.768C137.152 215.668 136.952 215.768 136.852 215.868ZM130.45 211.57C130.349 211.67 130.45 211.87 130.55 211.97C130.65 212.07 130.85 212.07 130.95 211.87C131.05 211.77 131.05 211.57 130.85 211.47C130.75 211.47 130.55 211.47 130.45 211.57ZM124.047 207.371C123.947 207.571 123.947 207.671 124.147 207.871C124.247 207.971 124.447 207.971 124.547 207.771C124.647 207.671 124.647 207.471 124.447 207.371C124.347 207.172 124.147 207.172 124.047 207.371ZM152.259 207.971C152.259 208.171 152.359 208.271 152.559 208.371C152.759 208.371 152.859 208.271 152.959 208.171C152.959 207.971 152.859 207.871 152.759 207.771C152.459 207.671 152.259 207.771 152.259 207.971ZM144.756 206.472C144.756 206.672 144.856 206.772 145.056 206.872C145.256 206.872 145.356 206.772 145.456 206.672C145.456 206.472 145.356 206.372 145.256 206.272C144.956 206.172 144.756 206.272 144.756 206.472ZM137.152 204.872C137.152 205.072 137.252 205.172 137.352 205.272C137.553 205.272 137.653 205.172 137.753 204.972C137.753 204.773 137.653 204.673 137.553 204.573C137.352 204.673 137.252 204.773 137.152 204.872ZM129.649 203.373C129.649 203.573 129.749 203.673 129.849 203.773C129.949 203.773 129.949 203.773 130.049 203.773C130.149 203.773 130.249 203.673 130.249 203.573C130.249 203.373 130.149 203.273 129.949 203.173C129.849 203.173 129.649 203.273 129.649 203.373ZM122.046 201.874C122.046 201.974 122.046 201.974 122.046 202.074C122.146 202.074 122.146 202.174 122.146 202.274H122.246C122.446 202.274 122.546 202.174 122.646 202.074C122.646 201.874 122.546 201.774 122.346 201.674C122.246 201.574 122.046 201.774 122.046 201.874ZM131.95 225.964C131.85 226.064 131.75 226.264 131.85 226.464C131.95 226.564 132.15 226.664 132.25 226.564C132.35 226.464 132.45 226.264 132.35 226.164C132.25 225.864 132.05 225.864 131.95 225.964ZM138.153 205.572C138.153 205.672 138.153 205.772 138.253 205.772C138.353 205.772 138.453 205.772 138.453 205.672C138.453 205.572 138.453 205.472 138.353 205.472C138.253 205.472 138.153 205.472 138.153 205.572ZM133.951 203.873C133.951 203.973 133.951 204.073 134.051 204.073C134.151 204.073 134.251 204.073 134.251 203.973C134.251 203.873 134.251 203.773 134.151 203.673C134.051 203.673 133.951 203.773 133.951 203.873ZM129.749 202.074C129.749 202.174 129.749 202.274 129.849 202.274C129.949 202.274 130.049 202.274 130.049 202.174C130.049 202.074 130.049 201.974 129.949 201.974C129.849 201.974 129.749 201.974 129.749 202.074ZM125.547 200.374C125.547 200.474 125.547 200.574 125.647 200.574C125.748 200.574 125.848 200.574 125.848 200.474C125.848 200.374 125.848 200.274 125.748 200.274C125.647 200.174 125.547 200.274 125.547 200.374ZM137.753 195.776C137.653 195.776 137.553 195.876 137.553 195.976C137.553 196.076 137.653 196.176 137.753 196.176C137.853 196.176 137.953 196.076 137.953 195.976C137.953 195.876 137.853 195.776 137.753 195.776ZM131.05 211.87C130.95 211.97 130.95 212.07 131.05 212.07C131.15 212.17 131.25 212.17 131.35 212.07C131.45 211.97 131.45 211.87 131.35 211.77C131.25 211.77 131.15 211.77 131.05 211.87ZM127.848 208.671C127.748 208.771 127.748 208.871 127.848 208.871C127.948 208.971 128.048 208.971 128.149 208.871C128.249 208.771 128.249 208.671 128.149 208.571C128.048 208.571 127.948 208.571 127.848 208.671ZM124.647 205.472C124.547 205.572 124.547 205.672 124.647 205.772C124.747 205.872 124.847 205.872 124.947 205.772C125.047 205.672 125.047 205.572 124.947 205.472C124.847 205.372 124.747 205.372 124.647 205.472ZM121.546 202.174C121.446 202.174 121.446 202.174 121.546 202.174C121.346 202.274 121.346 202.373 121.446 202.473H121.546C121.646 202.473 121.646 202.473 121.746 202.473C121.846 202.373 121.846 202.274 121.746 202.174C121.646 202.174 121.646 202.174 121.546 202.174ZM139.453 206.372C139.353 206.472 139.453 206.572 139.553 206.672C139.653 206.772 139.753 206.672 139.854 206.572C139.954 206.472 139.954 206.372 139.854 206.272C139.653 206.272 139.553 206.272 139.453 206.372ZM135.152 203.573C135.051 203.673 135.152 203.773 135.252 203.873C135.352 203.973 135.452 203.873 135.552 203.773C135.652 203.673 135.552 203.573 135.452 203.473C135.352 203.473 135.152 203.473 135.152 203.573ZM130.75 200.774C130.65 200.874 130.75 200.974 130.85 201.074C130.95 201.174 131.05 201.074 131.15 200.974C131.25 200.874 131.15 200.774 131.15 200.674C130.95 200.674 130.85 200.674 130.75 200.774ZM141.154 195.476C141.054 195.476 140.954 195.476 140.854 195.676C140.854 195.776 140.954 195.876 141.054 195.876C141.154 195.876 141.254 195.876 141.354 195.676V195.576C141.354 195.476 141.254 195.476 141.154 195.476ZM130.249 212.17C130.149 212.27 130.149 212.37 130.149 212.469C130.249 212.569 130.349 212.569 130.45 212.569C130.55 212.469 130.55 212.37 130.55 212.27C130.55 212.17 130.349 212.07 130.249 212.17ZM127.348 207.871C127.248 207.971 127.248 208.071 127.248 208.171C127.348 208.271 127.448 208.271 127.548 208.271C127.648 208.171 127.648 208.071 127.648 207.971C127.548 207.871 127.448 207.771 127.348 207.871ZM124.447 203.573C124.347 203.673 124.347 203.773 124.347 203.873C124.447 203.973 124.547 203.973 124.647 203.873C124.747 203.773 124.747 203.673 124.747 203.573C124.647 203.573 124.547 203.573 124.447 203.573ZM163.864 195.876C163.864 196.076 163.964 196.276 164.164 196.276C164.364 196.276 164.564 196.176 164.564 195.976C164.564 195.776 164.464 195.576 164.264 195.576C164.064 195.476 163.864 195.676 163.864 195.876ZM155.16 193.977C155.16 194.177 155.26 194.377 155.46 194.377C155.66 194.377 155.86 194.277 155.86 194.077C155.86 193.877 155.76 193.677 155.56 193.677C155.36 193.677 155.16 193.777 155.16 193.977ZM146.456 192.178C146.456 192.377 146.556 192.577 146.756 192.577C146.957 192.577 147.157 192.477 147.157 192.277C147.157 192.078 147.057 191.878 146.857 191.878C146.656 191.878 146.456 191.978 146.456 192.178ZM142.855 226.464C142.655 226.564 142.655 226.764 142.755 226.964C142.855 227.164 143.055 227.164 143.255 227.064C143.455 226.964 143.455 226.764 143.355 226.564C143.255 226.464 143.055 226.364 142.855 226.464ZM137.953 219.067C137.753 219.167 137.753 219.367 137.853 219.567C137.953 219.767 138.153 219.767 138.353 219.667C138.553 219.567 138.553 219.367 138.453 219.167C138.353 218.967 138.153 218.967 137.953 219.067ZM133.151 211.57C132.951 211.67 132.951 211.87 133.051 212.07C133.151 212.27 133.351 212.27 133.551 212.17C133.751 212.07 133.751 211.87 133.651 211.67C133.551 211.57 133.351 211.47 133.151 211.57ZM128.249 204.173C128.048 204.273 128.048 204.473 128.149 204.673C128.249 204.872 128.449 204.872 128.649 204.773C128.849 204.673 128.849 204.473 128.749 204.273C128.649 204.073 128.449 204.073 128.249 204.173ZM153.259 210.37C153.159 210.57 153.159 210.77 153.359 210.87C153.559 210.97 153.759 210.97 153.859 210.77C153.96 210.57 153.96 210.37 153.759 210.27C153.659 210.17 153.359 210.17 153.259 210.37ZM145.956 205.372C145.856 205.572 145.856 205.772 146.056 205.872C146.256 205.972 146.456 205.972 146.556 205.772C146.656 205.572 146.656 205.372 146.456 205.272C146.256 205.172 146.056 205.172 145.956 205.372ZM138.553 200.374C138.453 200.574 138.453 200.774 138.653 200.874C138.853 200.974 139.053 200.974 139.153 200.774C139.253 200.574 139.253 200.374 139.053 200.274C138.953 200.174 138.753 200.174 138.553 200.374ZM157.861 206.372C157.761 206.572 157.761 206.772 157.961 206.872C158.161 206.972 158.361 206.972 158.461 206.772C158.561 206.572 158.561 206.372 158.361 206.272C158.261 206.172 157.961 206.172 157.861 206.372ZM150.358 201.674C150.258 201.874 150.358 202.074 150.458 202.174C150.658 202.274 150.858 202.174 150.958 202.074C151.058 201.874 151.058 201.674 150.858 201.574C150.658 201.474 150.458 201.474 150.358 201.674ZM142.855 196.976C142.755 197.176 142.755 197.375 142.955 197.475C143.155 197.575 143.355 197.575 143.455 197.375C143.555 197.176 143.555 196.976 143.355 196.876C143.155 196.776 142.955 196.876 142.855 196.976ZM123.747 210.67C123.547 210.67 123.447 210.87 123.447 211.07C123.447 211.27 123.647 211.37 123.847 211.37C124.047 211.37 124.147 211.17 124.147 210.97C124.147 210.67 123.947 210.57 123.747 210.67ZM121.746 201.974C121.646 201.974 121.546 202.074 121.546 202.174C121.446 202.274 121.446 202.373 121.446 202.473V202.573C121.546 202.773 121.746 202.873 121.946 202.773C122.146 202.673 122.246 202.473 122.146 202.373C122.146 202.274 122.046 202.274 122.046 202.174C121.946 201.974 121.846 201.974 121.746 201.974ZM142.355 216.268C142.155 216.368 142.154 216.568 142.255 216.768C142.355 216.968 142.555 216.968 142.755 216.868C142.955 216.768 142.955 216.568 142.855 216.368C142.755 216.168 142.455 216.068 142.355 216.268ZM137.152 209.071C136.952 209.171 136.952 209.371 137.052 209.571C137.152 209.771 137.352 209.771 137.553 209.671C137.753 209.571 137.753 209.371 137.653 209.171C137.553 208.971 137.352 208.871 137.152 209.071ZM132.05 201.874C131.85 201.974 131.85 202.174 131.95 202.373C132.05 202.573 132.25 202.573 132.45 202.473C132.65 202.373 132.65 202.174 132.55 201.974C132.45 201.774 132.15 201.674 132.05 201.874ZM143.655 200.974C143.555 201.074 143.555 201.274 143.655 201.374C143.755 201.474 143.955 201.474 144.055 201.374C144.155 201.274 144.155 201.074 144.055 200.974C143.955 200.874 143.755 200.874 143.655 200.974ZM138.853 196.376C138.753 196.476 138.753 196.676 138.853 196.776C138.953 196.876 139.153 196.876 139.253 196.776C139.353 196.676 139.353 196.476 139.253 196.376C139.153 196.276 138.953 196.276 138.853 196.376ZM130.65 206.072C130.55 206.172 130.45 206.272 130.45 206.372C130.55 206.472 130.65 206.572 130.85 206.572C130.95 206.472 131.05 206.372 130.95 206.172C130.95 206.072 130.75 205.972 130.65 206.072ZM127.948 199.974C127.848 200.074 127.748 200.174 127.848 200.374C127.948 200.474 128.048 200.574 128.249 200.474C128.349 200.374 128.449 200.274 128.349 200.074C128.249 199.974 128.048 199.874 127.948 199.974Z" fill="white"/>
<path d="M89.9323 92.9168C89.9323 92.9168 55.5177 142.197 66.9225 192.477C66.9225 192.477 104.238 210.57 137.653 178.283C137.653 178.283 106.839 118.007 105.139 100.914L89.9323 92.9168Z" fill="url(#paint20_linear_6_726)"/>
<path d="M178.47 106.212H199.579V121.605C199.579 127.403 194.877 132.201 188.974 132.201C183.172 132.201 178.37 127.503 178.37 121.605L178.47 106.212Z" fill="url(#paint21_linear_6_726)"/>
<path d="M187.874 112.609H190.975C192.276 112.609 193.376 113.709 193.376 115.008V130.802H185.573V115.008C185.473 113.709 186.573 112.609 187.874 112.609Z" fill="url(#paint22_linear_6_726)"/>
<path d="M175.969 134.7C175.969 134.7 181.971 123.105 185.473 120.906C185.473 120.906 185.473 128.903 189.074 128.803C193.276 128.703 193.476 121.406 193.276 117.907C193.176 115.408 192.876 115.608 195.177 116.308C196.678 116.807 205.281 121.006 203.581 132.601C201.88 144.197 184.773 144.297 182.472 145.696C181.471 146.296 180.471 146.895 179.47 147.495L175.969 134.7Z" fill="url(#paint23_linear_6_726)"/>
<path d="M89.9323 92.9168C89.9323 92.9168 106.94 94.0164 113.742 115.508C120.545 136.999 122.146 153.393 136.552 150.594C150.958 147.795 166.965 140.198 175.669 133.401L185.273 170.086C185.273 170.086 176.469 183.281 163.664 184.481C150.858 185.68 141.254 193.277 133.751 196.476C126.248 199.675 109.04 204.872 100.637 192.877C92.2333 180.882 78.6275 142.597 80.6283 109.01C83.3295 103.513 86.4308 98.1148 89.9323 92.9168Z" fill="url(#paint24_linear_6_726)"/>
<path d="M129.649 252.953L37.51 252.953L14.3001 129.202C12.5994 120.006 18.602 111.11 27.9059 109.41C28.9064 109.21 30.0068 109.11 31.0073 109.11L88.5317 109.11C96.7352 109.11 103.738 114.908 105.239 122.905L129.649 252.953Z" fill="url(#paint25_linear_6_726)"/>
<path d="M122.546 74.3242C122.546 74.3242 120.245 83.3207 110.941 85.4198C103.438 87.1192 96.9353 83.9204 94.6343 82.621C94.8344 82.3211 98.3359 76.4234 94.6343 74.0244C90.8327 71.5253 90.8327 70.2259 90.7326 68.4266C90.6326 66.6273 93.3337 64.1283 97.8357 65.6277C102.338 67.227 106.839 63.3286 107.14 57.9307C111.742 58.7304 116.344 58.4305 120.745 57.0311C121.346 58.4305 124.647 67.0271 126.048 69.4262C127.648 72.0251 123.847 74.1243 122.546 74.3242Z" fill="#FFBEB6"/>
<path d="M129.349 56.9311C128.849 56.6312 128.249 56.4313 127.648 56.4313C126.048 56.4313 124.347 57.7308 123.547 59.9299C123.447 60.2298 123.346 60.6296 123.246 61.0295C122.946 60.9295 122.646 60.8296 122.246 60.8296C121.146 60.8296 120.145 61.1295 119.245 61.7292C119.245 61.5293 119.245 61.3294 119.145 61.1295C118.945 59.9299 118.444 58.8304 117.644 57.9307C117.444 57.6308 117.144 57.4309 116.844 57.231C115.043 56.1314 112.942 56.6312 111.441 58.4305C110.841 59.1302 110.441 59.83 110.041 60.7296C109.441 62.329 109.241 64.1283 109.541 65.9276C109.741 67.1271 110.341 68.3266 111.141 69.2263C111.341 69.4262 111.541 69.6261 111.842 69.826C112.942 70.5257 114.443 70.6257 115.643 69.926C117.044 69.1263 118.044 67.8268 118.544 66.3274C118.945 65.1279 119.245 63.9283 119.145 62.7288C120.045 62.0291 121.246 61.6293 122.346 61.7292C122.446 61.7292 122.646 61.8292 122.646 61.8292L122.746 62.0291L122.846 62.229L123.046 62.7288C123.046 62.7288 124.547 66.3274 125.147 67.6269C127.148 68.9264 129.449 67.6269 130.65 64.6281C132.05 61.7292 131.35 58.2306 129.349 56.9311ZM118.044 65.8276C117.544 67.1271 116.644 68.3266 115.443 69.0263C114.443 69.6261 113.242 69.5261 112.342 68.9264C111.341 68.1267 110.641 67.0271 110.441 65.7276C110.141 64.2282 110.341 62.6289 110.841 61.1295C111.241 60.1298 111.842 59.1302 112.742 58.4305C113.742 57.4309 115.343 57.231 116.644 58.0307L116.744 58.1306C116.944 58.2306 117.044 58.3306 117.244 58.5305C117.944 59.3302 118.444 60.2298 118.644 61.2294C118.745 62.7288 118.644 64.3282 118.044 65.8276ZM130.249 64.2282C129.249 66.7272 127.148 67.9268 125.447 66.8272C123.747 65.7276 123.246 62.8288 124.247 60.3298C125.247 57.8308 127.348 56.6312 129.049 57.7308C130.65 58.7304 131.25 61.7292 130.249 64.2282Z" fill="#81AEF2"/>
<path d="M134.151 35.8395C134.051 35.6395 133.851 35.5396 133.651 35.6395C133.451 35.7395 133.351 35.9394 133.351 36.0394C137.152 48.7344 127.248 56.9311 116.243 58.1306C121.146 57.4309 126.848 55.2318 130.55 49.1342C137.953 36.8391 127.148 32.1409 120.945 35.4396C114.743 38.7383 110.341 45.1358 110.341 45.1358C110.341 45.1358 100.637 37.5388 84.9302 43.8363C69.2235 50.1338 75.026 69.2262 80.6283 74.7241C86.2307 80.2219 94.6343 82.6209 94.6343 82.6209C94.6343 82.6209 98.4359 76.5234 94.6343 74.0243C90.8327 71.5253 90.8327 70.2258 90.7326 68.4266C90.6326 66.6273 93.3337 64.1283 97.8356 65.6277C102.238 67.1271 106.639 63.4285 107.14 58.2306C114.443 60.0299 122.346 59.4301 128.349 54.4321C133.951 50.1338 136.252 42.6368 134.151 35.8395Z" fill="#2B2C28"/>
<path d="M353.864 163.8C363.806 172.464 371.273 217.398 371.273 261.27C371.273 305.143 363.808 341.765 353.864 350.431C343.923 341.767 336.455 305.143 336.455 261.27C336.455 217.398 343.923 172.464 353.864 163.8Z" fill="#339956"/>
<path d="M382.613 192.952C391.477 202.762 393.669 248.286 388.571 291.847C383.473 335.408 371.803 370.865 360.925 378.258C352.061 368.447 348.904 331.173 354.002 287.613C359.1 244.052 371.736 200.345 382.613 192.952Z" fill="url(#paint26_linear_6_726)"/>
<path d="M332.477 388.36H392.161C396.557 388.36 400.12 384.716 400.12 380.219V311.032H324.52V380.221C324.52 384.716 328.083 388.36 332.477 388.36Z" fill="url(#paint27_linear_6_726)"/>
<path d="M227.878 37.52L170.562 37.52C168.397 37.52 166.321 38.3748 164.791 39.8963C163.26 41.4179 162.4 43.4816 162.4 45.6333V61.7216C162.4 62.7871 162.611 63.8421 163.021 64.8265C163.431 65.8108 164.033 66.7052 164.791 67.4586C166.321 68.9802 168.397 69.835 170.562 69.835H177.98V78.6069C177.981 79.0083 178.101 79.4005 178.326 79.7339C178.551 80.0674 178.87 80.3271 179.243 80.4803C179.617 80.6335 180.027 80.6733 180.423 80.5947C180.819 80.5161 181.183 80.3226 181.468 80.0387L191.736 69.8326L227.878 69.8326C230.043 69.8326 232.119 68.9778 233.649 67.4562C235.18 65.9347 236.04 63.871 236.04 61.7192V45.6333C236.04 43.4816 235.18 41.4179 233.649 39.8963C232.119 38.3748 230.043 37.52 227.878 37.52V37.52Z" fill="#EEEEEE"/>
<path d="M327.489 83.6433C324.835 83.6433 322.034 82.3069 320.178 80.1553C317.744 77.3337 316.893 73.7192 316.382 70.5554C315.327 64.0312 315.804 59.1058 317.881 55.0564C318.899 53.0732 320.723 50.3823 324.8 49.9103L325.596 49.8222C325.913 49.7883 326.225 49.7716 326.53 49.7716C329.034 49.7716 331.358 50.8803 333.251 52.9767C334.818 54.7128 335.923 57.0336 336.632 60.0717C337.871 65.3908 337.57 71.1629 335.785 76.3257C334.656 79.5868 333.068 81.7124 330.928 82.8234C329.879 83.3678 328.722 83.6433 327.489 83.6433ZM326.53 53.535C326.357 53.535 326.181 53.5447 326.004 53.5637L325.225 53.6505C323.4 53.8614 322.279 54.7374 321.235 56.7725C319.542 60.0727 319.182 64.2621 320.103 69.9559C320.53 72.6003 321.212 75.5879 323.034 77.6991C324.176 79.0239 325.926 79.8799 327.489 79.8799C328.111 79.8799 328.683 79.7468 329.19 79.4839C330.432 78.8384 331.424 77.4038 332.222 75.0964C333.779 70.5953 334.041 65.5619 332.96 60.9245C332.401 58.5225 331.58 56.747 330.451 55.496C329.276 54.1948 327.957 53.535 326.53 53.535Z" fill="white"/>
<path d="M342.834 84.56C341.278 73.2319 340.593 61.6924 340.797 50.2608L344.565 50.3281C344.372 61.1688 344.992 72.1093 346.408 82.8652L346.437 82.8619L346.574 84.0972L342.834 84.56Z" fill="white"/>
<path d="M354.684 81.8975C354.519 78.2927 354.269 75.0936 352.872 72.4534C352.06 70.9185 350.567 69.4491 348.875 68.8217C347.883 69.7078 346.812 70.5151 345.648 71.2125L344.898 71.6618L344.07 71.3799C343.259 71.1031 342.618 70.4627 342.313 69.623C341.976 68.697 342.075 67.6495 342.579 66.8199C342.993 66.1378 343.855 65.2494 345.615 64.8951C346.317 64.7537 347.007 64.7092 347.678 64.7444C350.459 61.8111 352.55 58.1001 354.462 54.7068L357.1 50.0239L360.385 51.8694L357.746 56.5523C356.068 59.5297 354.146 62.9416 351.636 65.9463C353.629 67.0787 355.235 68.8639 356.205 70.6959C357.966 74.0248 358.263 77.6611 358.45 81.7259L354.684 81.8975Z" fill="white"/>
<path d="M365.95 74.7602C365.938 65.6379 365.617 56.3974 364.997 47.2955L368.758 47.04C369.383 56.2254 369.706 65.5498 369.719 74.7551L365.95 74.7602Z" fill="white"/>
<path d="M370.16 80.5592H366.391V83.225H370.16V80.5592Z" fill="white"/>
<path d="M185.921 56.84C187.159 56.84 188.162 55.8371 188.162 54.6C188.162 53.3629 187.159 52.36 185.921 52.36C184.683 52.36 183.68 53.3629 183.68 54.6C183.68 55.8371 184.683 56.84 185.921 56.84Z" fill="#339989"/>
<path d="M199.78 56.84C201.018 56.84 202.021 55.8371 202.021 54.6C202.021 53.3629 201.018 52.36 199.78 52.36C198.542 52.36 197.539 53.3629 197.539 54.6C197.539 55.8371 198.542 56.84 199.78 56.84Z" fill="#339989"/>
<path d="M213.639 56.84C214.877 56.84 215.88 55.8371 215.88 54.6C215.88 53.3629 214.877 52.36 213.639 52.36C212.401 52.36 211.398 53.3629 211.398 54.6C211.398 55.8371 212.401 56.84 213.639 56.84Z" fill="#339989"/>
<defs>
<linearGradient id="paint0_linear_6_726" x1="247.24" y1="161.14" x2="284.76" y2="161.14" gradientUnits="userSpaceOnUse">
<stop stop-color="#A1C3FC"/>
<stop offset="0.7" stop-color="#81AEF2"/>
<stop offset="1" stop-color="#78A9EF"/>
</linearGradient>
<linearGradient id="paint1_linear_6_726" x1="350.307" y1="289.702" x2="350.8" y2="144.295" gradientUnits="userSpaceOnUse">
<stop stop-color="#DDDDDD"/>
<stop offset="1" stop-color="#CBD2D9"/>
</linearGradient>
<linearGradient id="paint2_linear_6_726" x1="47.4283" y1="341.593" x2="47.9214" y2="196.186" gradientUnits="userSpaceOnUse">
<stop stop-color="#DDDDDD"/>
<stop offset="1" stop-color="#CBD2D9"/>
</linearGradient>
<linearGradient id="paint3_linear_6_726" x1="153.623" y1="362.731" x2="154.116" y2="217.323" gradientUnits="userSpaceOnUse">
<stop stop-color="#DDDDDD"/>
<stop offset="1" stop-color="#CBD2D9"/>
</linearGradient>
<linearGradient id="paint4_linear_6_726" x1="174.601" y1="199.155" x2="122.812" y2="201.079" gradientUnits="userSpaceOnUse">
<stop stop-color="#DDDDDD"/>
<stop offset="1" stop-color="#CBD2D9"/>
</linearGradient>
<linearGradient id="paint5_linear_6_726" x1="7.36631" y1="199.188" x2="103.15" y2="198.227" gradientUnits="userSpaceOnUse">
<stop stop-color="#DDDDDD"/>
<stop offset="1" stop-color="#CBD2D9"/>
</linearGradient>
<linearGradient id="paint6_linear_6_726" x1="138.903" y1="370.113" x2="120.391" y2="396.379" gradientUnits="userSpaceOnUse">
<stop offset="0.0898" stop-color="#339989"/>
<stop offset="0.8178" stop-color="#D6D7D8"/>
</linearGradient>
<linearGradient id="paint7_linear_6_726" x1="183.179" y1="232.068" x2="108.703" y2="240.054" gradientUnits="userSpaceOnUse">
<stop offset="0.14" stop-color="#E94A47"/>
<stop offset="1" stop-color="#C63030"/>
</linearGradient>
<linearGradient id="paint8_linear_6_726" x1="104.543" y1="266.946" x2="107.087" y2="240.639" gradientUnits="userSpaceOnUse">
<stop stop-color="#23286B"/>
<stop offset="1" stop-color="#151A4F"/>
</linearGradient>
<linearGradient id="paint9_linear_6_726" x1="63.9944" y1="248.364" x2="114.083" y2="276.615" gradientUnits="userSpaceOnUse">
<stop stop-color="#23286B"/>
<stop offset="1" stop-color="#151A4F"/>
</linearGradient>
<linearGradient id="paint10_linear_6_726" x1="106.236" y1="308.741" x2="104.15" y2="380.541" gradientUnits="userSpaceOnUse">
<stop stop-color="#23286B"/>
<stop offset="1" stop-color="#151A4F"/>
</linearGradient>
<linearGradient id="paint11_linear_6_726" x1="137.905" y1="357.897" x2="103.024" y2="347.654" gradientUnits="userSpaceOnUse">
<stop stop-color="#23286B"/>
<stop offset="1" stop-color="#151A4F"/>
</linearGradient>
<linearGradient id="paint12_linear_6_726" x1="45.9233" y1="331.63" x2="73.8944" y2="356.908" gradientUnits="userSpaceOnUse">
<stop stop-color="#23286B"/>
<stop offset="1" stop-color="#151A4F"/>
</linearGradient>
<linearGradient id="paint13_linear_6_726" x1="84.5178" y1="372.283" x2="52.1659" y2="398.326" gradientUnits="userSpaceOnUse">
<stop offset="0.0898" stop-color="#339989"/>
<stop offset="0.8178" stop-color="#D6D7D8"/>
</linearGradient>
<linearGradient id="paint14_linear_6_726" x1="168.97" y1="368.46" x2="144.126" y2="394.966" gradientUnits="userSpaceOnUse">
<stop offset="0.0898" stop-color="#EEEEEE"/>
<stop offset="0.8178" stop-color="#D6D7D8"/>
</linearGradient>
<linearGradient id="paint15_linear_6_726" x1="96.0693" y1="349.281" x2="166.9" y2="376.662" gradientUnits="userSpaceOnUse">
<stop offset="0.1291" stop-color="#2B2C28"/>
<stop offset="0.9987" stop-color="#4D5044"/>
</linearGradient>
<linearGradient id="paint16_linear_6_726" x1="28.9854" y1="279.414" x2="189.491" y2="260.723" gradientUnits="userSpaceOnUse">
<stop stop-color="#23286B"/>
<stop offset="1" stop-color="#151A4F"/>
</linearGradient>
<linearGradient id="paint17_linear_6_726" x1="58.2723" y1="367.928" x2="38.5887" y2="395.602" gradientUnits="userSpaceOnUse">
<stop offset="0.0898" stop-color="#339989"/>
<stop offset="0.8178" stop-color="#D6D7D8"/>
</linearGradient>
<linearGradient id="paint18_linear_6_726" x1="92.8073" y1="104.722" x2="106.102" y2="79.7943" gradientUnits="userSpaceOnUse">
<stop stop-color="#FFBEB6"/>
<stop offset="1" stop-color="#F2A19C"/>
</linearGradient>
<linearGradient id="paint19_linear_6_726" x1="181.195" y1="283.822" x2="51.5484" y2="190.42" gradientUnits="userSpaceOnUse">
<stop stop-color="#23286B"/>
<stop offset="1" stop-color="#151A4F"/>
</linearGradient>
<linearGradient id="paint20_linear_6_726" x1="64.594" y1="145.248" x2="137.641" y2="145.248" gradientUnits="userSpaceOnUse">
<stop stop-color="#A1C3FC"/>
<stop offset="0.6955" stop-color="#81AEF2"/>
<stop offset="1" stop-color="#78A9EF"/>
</linearGradient>
<linearGradient id="paint21_linear_6_726" x1="180.528" y1="90.2843" x2="193.581" y2="128.322" gradientUnits="userSpaceOnUse">
<stop offset="0.14" stop-color="#E94A47"/>
<stop offset="1" stop-color="#C63030"/>
</linearGradient>
<linearGradient id="paint22_linear_6_726" x1="189.85" y1="113.803" x2="188.565" y2="143.533" gradientUnits="userSpaceOnUse">
<stop offset="0.14" stop-color="#E94A47"/>
<stop offset="1" stop-color="#C63030"/>
</linearGradient>
<linearGradient id="paint23_linear_6_726" x1="197.838" y1="144.834" x2="170.955" y2="107.167" gradientUnits="userSpaceOnUse">
<stop stop-color="#FFBEB6"/>
<stop offset="1" stop-color="#F2A19C"/>
</linearGradient>
<linearGradient id="paint24_linear_6_726" x1="143.261" y1="167.783" x2="78.7538" y2="114.818" gradientUnits="userSpaceOnUse">
<stop stop-color="#A1C3FC"/>
<stop offset="0.6955" stop-color="#81AEF2"/>
<stop offset="1" stop-color="#78A9EF"/>
</linearGradient>
<linearGradient id="paint25_linear_6_726" x1="95.0421" y1="139.441" x2="18.6301" y2="298.162" gradientUnits="userSpaceOnUse">
<stop offset="0.14" stop-color="#339989"/>
<stop offset="1" stop-color="#7DE2D1"/>
</linearGradient>
<linearGradient id="paint26_linear_6_726" x1="391.273" y1="285.604" x2="351.56" y2="285.604" gradientUnits="userSpaceOnUse">
<stop stop-color="#339956"/>
<stop offset="1" stop-color="#BCEF2A"/>
</linearGradient>
<linearGradient id="paint27_linear_6_726" x1="400.12" y1="349.696" x2="324.519" y2="349.696" gradientUnits="userSpaceOnUse">
<stop stop-color="#F2A19C"/>
<stop offset="1" stop-color="#E94A47"/>
</linearGradient>
</defs>
</svg>
